<?xml version="1.0" encoding="UTF-8"?>
<svg width="32px" height="32px" viewBox="0 0 32 32" version="1.1" xmlns="http://www.w3.org/2000/svg">
    <g stroke="none" stroke-width="1" fill="none" fill-rule="evenodd">
        <path d="M16,2 C8.268,2 2,8.268 2,16 C2,23.732 8.268,30 16,30 C23.732,30 30,23.732 30,16 C30,8.268 23.732,2 16,2" fill="#4A90E2"/>
        <path d="M22,10 L10,10 C9.447,10 9,10.447 9,11 L9,19 C9,19.553 9.447,20 10,20 L22,20 C22.553,20 23,19.553 23,19 L23,11 C23,10.447 22.553,10 22,10" fill="#FFFFFF"/>
        <circle cx="12" cy="22" r="2" fill="#FFFFFF"/>
        <circle cx="20" cy="22" r="2" fill="#FFFFFF"/>
    </g>
</svg>